<svg width="150" height="48" viewBox="0 0 150 48" fill="none" xmlns="http://www.w3.org/2000/svg">
<path fill-rule="evenodd" clip-rule="evenodd" d="M62.415 11.574H67.069L75.289 32.331H70.495L68.908 28.068H60.322L58.763 32.331H54L62.415 11.574ZM80.503 11.574H76.504V15.161H80.504L80.503 11.574ZM80.503 17.247H76.504V32.331H80.504L80.503 17.247ZM86.59 19.658H86.678C87.59 17.953 88.618 17.071 90.383 17.071C90.823 17.071 91.089 17.101 91.323 17.188V20.688H91.235C88.619 20.423 86.737 21.805 86.737 24.98V32.331H82.738V17.247H86.59V19.658ZM103.114 11.574H99.115V15.161H103.114V11.574ZM99.115 17.247H103.114V32.331H99.115V17.247ZM109.347 19.305H109.259V17.247H105.349V32.331H109.347V23.775C109.347 21.716 110.641 20.305 112.405 20.305C114.081 20.305 115.022 21.452 115.022 23.069V32.331H119.021V22.481C119.021 19.188 116.933 16.835 113.816 16.835C111.758 16.835 110.376 17.688 109.347 19.305ZM120.667 24.775C120.667 20.305 123.695 16.835 128.105 16.835C132.957 16.835 135.544 20.541 135.544 25.921H124.607C124.901 28.244 126.194 29.685 128.458 29.685C130.017 29.685 130.928 28.979 131.369 27.832H135.309C134.751 30.508 132.369 32.772 128.488 32.772C123.489 32.772 120.667 29.272 120.667 24.775ZM131.369 23.157H124.665C125.018 21.187 126.047 19.923 128.164 19.923C129.987 19.923 131.252 21.246 131.369 23.157ZM136.465 27.45H140.17C140.435 29.185 141.67 29.95 143.464 29.95C145.228 29.95 146.228 29.273 146.228 28.215C146.228 26.955 144.767 26.685 143.024 26.361H143.023C142.768 26.3141 142.513 26.2655 142.258 26.215C139.553 25.686 136.907 24.951 136.907 21.658C136.907 18.394 139.612 16.836 143.052 16.836C147.021 16.836 149.227 18.806 149.521 21.834H145.904C145.728 20.217 144.698 19.629 142.993 19.629C141.435 19.629 140.406 20.217 140.406 21.305C140.406 22.39 141.812 22.648 143.532 22.963C143.863 23.023 144.206 23.086 144.552 23.158C147.08 23.687 149.874 24.392 149.874 27.921C149.874 30.949 147.286 32.773 143.523 32.773C139.141 32.773 136.701 30.655 136.465 27.45ZM61.468 24.569H67.731L64.556 15.747L61.469 24.568L61.468 24.569ZM96.881 11.574H92.881V32.33H96.881V11.574Z" fill="white"/>
<path fill-rule="evenodd" clip-rule="evenodd" d="M49 24.005C49 37.265 38.262 48 25.007 48C11.75 48 1 37.264 1 24.005C1 10.746 11.75 0 25.007 0C38.263 0 49 10.746 49 24.005ZM23.138 11.573C19.378 11.573 16.939 11.78 15.173 12.436C12.206 13.592 10.157 16.015 10.157 19.198C10.157 21.85 11.392 23.77 14.965 25.978C18.778 28.29 19.538 29.054 19.538 30.446C19.538 31.971 18.045 33.706 14.202 33.706C12.862 33.706 10.841 33.52 9.55 33.204L8.934 33.049C8.591 33.97 7.811 36.149 7.573 36.939L8.183 37.119C9.343 37.489 12.1 37.779 14.073 37.779C20.641 37.779 24.56 33.81 24.56 29.656C24.56 27.103 23.4 25.162 19.483 22.718C17.518 21.508 16.517 20.725 15.908 20.118C15.416 19.485 15.361 19.013 15.361 18.515C15.361 18.04 15.467 17.492 15.781 17.091C16.119 16.594 16.741 16.278 17.583 16.017C18.448 15.73 20.05 15.723 22.546 15.723H24.871L26.531 11.573H23.138ZM29.024 11.573H40.704C41.252 11.573 41.357 11.961 41.146 12.383C40.382 14.276 33.176 32.33 33.176 32.33H28.36C28.36 32.33 34.051 17.827 34.996 15.667C34.777 15.667 34.576 15.673 34.307 15.681C33.772 15.698 32.971 15.723 31.235 15.723H27.364L29.024 11.573Z" fill="white"/>
</svg>
