<svg width="63" height="63" viewBox="0 0 63 63" fill="none" xmlns="http://www.w3.org/2000/svg">
<circle opacity="0.5" cx="31.5" cy="31.5" r="30" transform="matrix(-1 0 0 1 63 0)"  stroke="white" stroke-width="3"/>
<path d="M30.7261 30.4159C30.0412 30.9761 30.0412 32.0231 30.7261 32.5833L39.7148 39.9353C40.6289 40.683 42.0011 40.0326 42.0011 38.8516L42.0011 24.1476C42.0011 22.9667 40.6289 22.3163 39.7148 23.0639L30.7261 30.4159Z" fill="white"/>
<path d="M18.1262 30.4159C17.4414 30.9761 17.4414 32.0231 18.1262 32.5833L27.1149 39.9353C28.0291 40.683 29.4013 40.0326 29.4013 38.8516L29.4013 24.1476C29.4013 22.9667 28.0291 22.3163 27.1149 23.0639L18.1262 30.4159Z" fill="white"/>
</svg>
