<svg width="1440" viewBox="0 0 1440 790" fill="none" xmlns="http://www.w3.org/2000/svg">
<path fill-rule="evenodd" clip-rule="evenodd" d="M0 0H1440V423C1440 222.521 1277.48 60 1077 60C876.521 60 714 222.521 714 423V433H713.824C707.748 631.196 545.169 790 345.5 790H0V433V410V0Z" fill="#614D98"/>
<g opacity="0.5">
<path d="M299.709 763.801C293.09 763.801 289.506 760.217 289.506 755.561C289.506 750.905 293.09 747.322 299.709 747.322C306.328 747.322 309.934 750.905 309.934 755.561C309.934 760.217 306.328 763.801 299.709 763.801ZM299.709 762.386C305.278 762.386 308.291 759.373 308.291 755.561C308.291 751.75 305.278 748.737 299.709 748.737C294.14 748.737 291.15 751.75 291.15 755.561C291.15 759.373 294.14 762.386 299.709 762.386Z" fill="white"/>
<path d="M322.143 763.55H320.5V749.011H312.968V747.573H329.652V749.011H322.143V763.55Z" fill="white"/>
<path d="M337.393 755.497L349.753 763.547L347.151 763.587L335.137 755.715L335.261 763.771L333.618 763.796L333.371 747.821L335.014 747.796L335.132 755.395L346.517 747.618L349.05 747.579L337.393 755.497Z" fill="white"/>
<path d="M351.453 748.131L361.219 747.414C365.339 747.112 367.514 748.989 367.739 752.062C367.963 755.112 366.088 757.309 361.968 757.612L353.841 758.209L354.262 763.945L352.623 764.065L351.453 748.131ZM353.69 756.778L361.862 756.178C364.913 755.954 366.261 754.367 366.1 752.182C365.938 749.974 364.374 748.624 361.324 748.848L353.152 749.448L353.69 756.778Z" fill="white"/>
<path d="M374.897 752.911L382.633 751.71C386.716 751.076 389.087 752.81 389.563 755.877C390.036 758.922 388.302 761.293 384.22 761.927L374.86 763.38L372.409 747.592L374.032 747.34L374.897 752.911ZM393.94 760.417L391.489 744.629L393.113 744.377L395.564 760.165L393.94 760.417ZM376.218 761.714L383.999 760.506C387.021 760.036 388.282 758.339 387.939 756.129C387.596 753.919 385.876 752.661 382.854 753.13L375.073 754.338L376.218 761.714Z" fill="white"/>
<path d="M413.172 748.754L413.232 749.021C415.432 748.718 417.138 749.765 417.629 751.971C418.195 754.51 416.948 756.472 413.026 757.344L401.709 759.863L398.237 744.268L409.533 741.754C412.897 741.005 414.886 742.269 415.401 744.587C415.848 746.592 414.816 748.154 413.172 748.754ZM409.779 743.172L400.154 745.315L401.409 750.951L411.033 748.809C413.35 748.293 414.229 746.882 413.857 745.211C413.485 743.54 412.096 742.657 409.779 743.172ZM403 758.103L412.803 755.921C415.499 755.321 416.387 753.954 415.991 752.172C415.589 750.367 414.2 749.484 411.504 750.084L401.701 752.266L403 758.103Z" fill="white"/>
<path d="M440.947 750.585L439.236 751.077L436.517 748.225L425.263 751.458L424.473 755.319L422.762 755.81L426.532 738.104L428.352 737.58L440.947 750.585ZM427.507 740.673L425.571 749.968L435.465 747.126L428.889 740.276C428.233 739.562 427.935 739.102 427.834 738.751L427.827 738.729L427.586 738.798L427.592 738.82C427.693 739.171 427.685 739.72 427.507 740.673Z" fill="white"/>
<path d="M453.341 730.024L453.82 731.38L441.233 735.835L443.152 741.257L454.233 737.335L454.683 738.604L443.602 742.526L445.605 748.185L458.192 743.73L458.672 745.085L444.535 750.089L439.204 735.027L453.341 730.024Z" fill="white"/>
<path d="M465.428 743.579L463.968 744.229L457.471 729.632L459.932 728.537L470.77 735.43C471.275 735.78 471.56 736.027 471.653 736.236L471.69 736.319L471.92 736.217L471.883 736.134C471.79 735.925 471.787 735.527 471.875 734.938L474.007 722.272L476.467 721.177L482.964 735.773L481.505 736.423L476.65 725.517C476.084 724.245 475.889 723.582 475.627 722.6L475.418 722.693L473.039 736.768L471.371 737.511L459.321 729.858L459.091 729.96C459.666 730.804 460.007 731.401 460.574 732.673L465.428 743.579Z" fill="white"/>
<path d="M504.327 726.296C498.655 729.48 493.776 728.109 491.497 724.049C489.218 719.988 490.589 715.109 496.261 711.926C501.675 708.887 505.778 709.855 508.189 712.612L506.756 713.416C504.86 711.391 501.571 710.568 496.954 713.16C492.197 715.83 491.064 719.92 492.93 723.244C494.796 726.568 498.878 727.732 503.634 725.062C508.252 722.47 509.262 719.233 508.521 716.561L509.954 715.756C511.105 719.298 509.781 723.235 504.327 726.296Z" fill="white"/>
<path d="M521.334 697.774L522.11 698.984L510.871 706.193L513.977 711.035L523.871 704.688L524.598 705.822L514.704 712.168L517.945 717.221L529.184 710.012L529.96 711.222L517.338 719.319L508.712 705.87L521.334 697.774Z" fill="white"/>
<path d="M530.849 700.16L538.359 694.654C541.415 692.415 543.999 692.813 545.672 695.095C547.332 697.359 546.934 699.944 543.878 702.184L535.079 708.634L525.633 695.748L538.243 686.504L539.093 687.664L527.772 695.963L530.849 700.16ZM535.554 706.502L543.028 701.024C545.2 699.432 545.48 697.613 544.32 696.03C543.146 694.428 541.328 694.148 539.155 695.741L531.681 701.219L535.554 706.502Z" fill="white"/>
<path d="M546.802 680.575L554.361 674.279L564.586 686.555L563.324 687.607L559.394 682.889L553.572 687.739C551.835 689.185 551.499 689.852 552.031 691.666L553.24 696.006L551.749 697.248L550.639 693.063C550.117 691.152 550.207 690.333 551.204 689.355L551.043 689.162C549.138 690.333 546.838 689.962 545.275 688.085C543.522 685.981 543.786 683.087 546.802 680.575ZM552.222 687.081L558.553 681.808L554.053 676.406L547.722 681.68C545.478 683.55 545.296 685.543 546.64 687.156C547.984 688.769 549.977 688.951 552.222 687.081Z" fill="white"/>
<path d="M579.82 662.136L580.013 662.33C581.713 660.9 583.714 660.875 585.306 662.479C587.139 664.325 587.131 666.649 584.28 669.479L576.052 677.648L564.795 666.31L573.008 658.157C575.453 655.729 577.81 655.737 579.482 657.422C580.929 658.88 580.89 660.752 579.82 662.136ZM573.972 659.226L566.975 666.173L571.043 670.271L578.04 663.324C579.725 661.651 579.715 659.989 578.509 658.774C577.303 657.559 575.657 657.553 573.972 659.226ZM576.205 675.47L583.332 668.395C585.292 666.449 585.314 664.819 584.027 663.523C582.725 662.211 581.079 662.205 579.119 664.151L571.992 671.226L576.205 675.47Z" fill="white"/>
<path d="M598.232 656.286L597.171 657.541L584.97 647.227L595.933 634.258L608.134 644.573L607.073 645.828L595.97 636.442L587.129 646.9L598.232 656.286Z" fill="white"/>
<path d="M612.764 628.52L608.892 618.427L610.043 616.893L615.398 631.323C616.224 633.569 616.507 635.322 615.014 637.312C614.617 637.842 614.206 638.275 613.686 638.627L612.535 637.764C613.019 637.385 613.389 637.006 613.718 636.568C614.786 635.144 614.795 633.952 614.229 632.387L613.877 631.41L599.512 630.935L600.689 629.365L611.791 629.817C612.549 629.871 613.179 629.944 613.508 630.191L613.562 630.232L613.699 630.049L613.645 630.008C613.316 629.762 613.042 629.214 612.764 628.52Z" fill="white"/>
<path d="M629.973 616.933L629.06 618.3L616.968 610.227L612.786 616.492L611.59 615.693L620.854 601.817L622.05 602.615L617.881 608.86L629.973 616.933Z" fill="white"/>
<path d="M630.205 587.202L631.445 587.929L624.696 599.45L629.659 602.357L635.601 592.214L636.763 592.895L630.821 603.038L636.001 606.072L642.75 594.551L643.99 595.277L636.411 608.216L622.625 600.141L630.205 587.202Z" fill="white"/>
<path d="M655.991 570.446L642.867 564.19L643.574 562.707L657.997 569.582L647.988 590.576L633.566 583.701L634.273 582.218L647.397 588.474L651.356 580.171L638.231 573.915L638.919 572.472L652.043 578.729L655.991 570.446Z" fill="white"/>
<path d="M651.804 544.612L653.136 545.153L648.119 557.527L653.45 559.688L657.866 548.795L659.114 549.301L654.698 560.194L660.261 562.449L665.278 550.075L666.61 550.616L660.976 564.512L646.169 558.509L651.804 544.612Z" fill="white"/>
<path d="M672.578 536.758C670.57 542.945 666.055 545.247 661.627 543.81C657.198 542.373 654.896 537.858 656.904 531.671C658.82 525.766 662.492 523.694 666.133 524.084L665.626 525.647C662.86 525.445 659.884 527.071 658.25 532.108C656.566 537.296 658.508 541.07 662.134 542.247C665.76 543.424 669.548 541.51 671.232 536.321C672.867 531.284 671.413 528.221 669.056 526.76L669.563 525.197C672.811 527.019 674.509 530.809 672.578 536.758Z" fill="white"/>
<path d="M679.18 515.654L678.757 517.241L664.709 513.492L662.767 520.769L661.378 520.398L665.681 504.278L667.07 504.649L665.133 511.904L679.18 515.654Z" fill="white"/>
<path d="M677.397 488.707L677.665 488.759C678.268 486.621 679.909 485.475 682.127 485.907C684.681 486.404 685.98 488.332 685.212 492.275L682.997 503.656L667.314 500.602L669.525 489.244C670.184 485.861 672.138 484.544 674.468 484.997C676.484 485.39 677.504 486.96 677.397 488.707ZM670.924 489.586L669.039 499.264L674.708 500.368L676.592 490.689C677.046 488.359 676.103 486.99 674.423 486.663C672.743 486.335 671.377 487.256 670.924 489.586ZM681.899 501.768L683.818 491.91C684.346 489.199 683.449 487.839 681.656 487.49C679.842 487.136 678.476 488.056 677.949 490.767L676.029 500.625L681.899 501.768Z" fill="white"/>
<path d="M688.094 480.07L687.758 482.697L671.91 480.67L672.113 479.086L684.067 480.614C685.38 480.782 686.025 480.956 686.975 481.262L687.004 481.035L673.801 465.886L674.136 463.26L689.984 465.286L689.782 466.871L677.828 465.343C676.515 465.175 675.87 465 674.922 464.672L674.89 464.921L688.094 480.07Z" fill="white"/>
<path d="M691.632 456.048L691.479 458.691L675.529 457.767L675.621 456.172L687.652 456.869C688.974 456.946 689.629 457.075 690.599 457.314L690.612 457.086L676.391 442.888L676.544 440.244L692.494 441.169L692.402 442.764L680.371 442.067C679.049 441.99 678.394 441.861 677.426 441.599L677.411 441.849L691.632 456.048Z" fill="white"/>
</g>
<g opacity="0.5">
<path d="M965.197 49.3447C958.61 51.5927 953.827 49.2438 952.246 44.6102C950.664 39.9766 953.013 35.1935 959.6 32.9455C966.187 30.6974 970.993 33.0387 972.575 37.6722C974.156 42.3058 971.784 47.0967 965.197 49.3447ZM964.717 47.9365C970.259 46.045 972.234 42.0235 970.939 38.2304C969.645 34.4372 965.623 32.4623 960.081 34.3537C954.539 36.2452 952.587 40.2589 953.881 44.052C955.176 47.8452 959.175 49.8279 964.717 47.9365Z" fill="white"/>
<path d="M988.642 41.8479L986.974 42.2999L982.975 27.5441L975.331 29.6156L974.936 28.1563L991.869 23.5675L992.264 25.0268L984.643 27.0921L988.642 41.8479Z" fill="white"/>
<path d="M1002.92 29.3741L1017.29 35.2011L1014.62 35.765L1000.63 30.0517L1002.38 38.3418L1000.69 38.6979L997.226 22.2585L998.917 21.9024L1000.56 29.7229L1010.75 19.4097L1013.36 18.8607L1002.92 29.3741Z" fill="white"/>
<path d="M1017.49 18.061L1027.67 16.5205C1031.97 15.8706 1034.4 17.6629 1034.89 20.8664C1035.37 24.0462 1033.58 26.5015 1029.28 27.1515L1020.81 28.4334L1021.72 34.4134L1020.01 34.6719L1017.49 18.061ZM1020.54 26.9457L1029.06 25.6565C1032.24 25.1753 1033.52 23.4031 1033.18 21.125C1032.83 18.8232 1031.08 17.5343 1027.9 18.0155L1019.38 19.3046L1020.54 26.9457Z" fill="white"/>
<path d="M1045.07 20.1367L1053.28 19.5023C1057.61 19.1675 1059.95 21.1767 1060.2 24.4309C1060.45 27.6613 1058.45 30.0071 1054.11 30.3419L1044.18 31.1095L1042.89 14.3595L1044.61 14.2263L1045.07 20.1367ZM1064.43 29.5447L1063.13 12.7947L1064.86 12.6615L1066.15 29.4115L1064.43 29.5447ZM1045.74 29.4726L1054 28.8344C1057.2 28.5866 1058.66 26.9091 1058.48 24.5641C1058.3 22.2191 1056.6 20.7619 1053.39 21.0098L1045.14 21.6479L1045.74 29.4726Z" fill="white"/>
<path d="M1085.7 20.2635L1085.7 20.5515C1088.03 20.7256 1089.56 22.1778 1089.58 24.5538C1089.6 27.2897 1087.88 29.031 1083.66 29.0636L1071.47 29.1577L1071.34 12.3582L1083.5 12.2643C1087.13 12.2363 1088.89 13.9747 1088.91 16.4706C1088.93 18.6306 1087.52 20.0095 1085.7 20.2635ZM1083.44 13.7768L1073.08 13.8568L1073.12 19.9286L1083.49 19.8486C1085.99 19.8293 1087.2 18.5719 1087.19 16.772C1087.17 14.972 1085.94 13.7575 1083.44 13.7768ZM1073.18 27.6324L1083.74 27.5509C1086.65 27.5285 1087.86 26.3191 1087.85 24.3991C1087.83 22.4552 1086.6 21.2407 1083.69 21.2631L1073.13 21.3446L1073.18 27.6324Z" fill="white"/>
<path d="M1114.85 30.1667L1112.98 30.0584L1111.27 26.2815L1098.98 25.5693L1096.85 29.1241L1094.98 29.0158L1104.89 12.7618L1106.88 12.877L1114.85 30.1667ZM1104.97 15.6508L1099.81 24.1987L1110.61 24.8248L1106.48 15.7383C1106.07 14.8014 1105.94 14.2406 1105.96 13.8573L1105.96 13.8333L1105.7 13.8181L1105.7 13.842C1105.67 14.2254 1105.47 14.7667 1104.97 15.6508Z" fill="white"/>
<path d="M1137.54 15.7799L1137.36 17.2811L1123.42 15.6076L1122.7 21.6125L1134.97 23.0857L1134.81 24.4916L1122.53 23.0184L1121.78 29.2854L1135.72 30.9589L1135.54 32.4601L1119.89 30.5807L1121.89 13.9005L1137.54 15.7799Z" fill="white"/>
<path d="M1145.4 33.866L1143.76 33.5449L1146.97 17.0546L1149.75 17.5958L1154.92 30.0708C1155.15 30.6768 1155.24 31.0623 1155.2 31.2979L1155.18 31.3921L1155.44 31.4425L1155.45 31.3483C1155.5 31.1127 1155.74 30.7679 1156.17 30.3139L1165.65 20.6918L1168.43 21.233L1165.22 37.7234L1163.57 37.4023L1165.97 25.0817C1166.25 23.6446 1166.48 22.9563 1166.84 21.9518L1166.61 21.906L1156.07 32.5925L1154.18 32.2256L1148.42 18.365L1148.16 18.3146C1148.15 19.3878 1148.08 20.1083 1147.8 21.5453L1145.4 33.866Z" fill="white"/>
<path d="M1187.22 43.7558C1180.66 41.8171 1178.11 37.1357 1179.5 32.4405C1180.89 27.7452 1185.57 25.1997 1192.13 27.1384C1198.39 28.9886 1200.67 32.7907 1200.36 36.6287L1198.7 36.1389C1198.84 33.2258 1197.05 30.1435 1191.71 28.5654C1186.21 26.9396 1182.29 29.0866 1181.16 32.9302C1180.02 36.7739 1182.14 40.7031 1187.64 42.3288C1192.98 43.907 1196.16 42.294 1197.63 39.7754L1199.28 40.2652C1197.46 43.73 1193.52 45.6196 1187.22 43.7558Z" fill="white"/>
<path d="M1224.59 38.3835L1224.07 39.8011L1210.9 34.9182L1208.8 40.5886L1220.39 44.8873L1219.89 46.2149L1208.31 41.9162L1206.11 47.8342L1219.27 52.7171L1218.75 54.1347L1203.96 48.6508L1209.81 32.8996L1224.59 38.3835Z" fill="white"/>
<path d="M1231.1 48.5363L1240.04 52.5183C1243.68 54.1385 1244.67 56.705 1243.46 59.4238C1242.26 62.1207 1239.69 63.1062 1236.05 61.486L1225.57 56.8208L1232.4 41.4727L1247.42 48.1582L1246.81 49.5395L1233.32 43.5372L1231.1 48.5363ZM1227.77 56.1422L1236.67 60.1047C1239.25 61.2563 1241.06 60.5629 1241.9 58.6773C1242.75 56.7697 1242.06 54.9636 1239.47 53.8119L1230.57 49.8494L1227.77 56.1422Z" fill="white"/>
<path d="M1259.33 54.0298L1268.49 58.8241L1260.71 73.7107L1259.17 72.9098L1262.17 67.1891L1255.11 63.496C1253 62.3948 1252.22 62.3376 1250.67 63.5868L1246.95 66.5137L1245.14 65.5682L1248.75 62.8003C1250.4 61.5207 1251.23 61.2782 1252.58 61.8504L1252.7 61.6165C1250.8 60.2398 1250.23 57.857 1251.42 55.5814C1252.75 53.0294 1255.67 52.1166 1259.33 54.0298ZM1255.2 61.9197L1262.88 65.9353L1266.3 59.3852L1258.63 55.3696C1255.9 53.9458 1253.89 54.5747 1252.87 56.5312C1251.85 58.4877 1252.48 60.4959 1255.2 61.9197Z" fill="white"/>
<path d="M1289.58 80.7725L1289.42 81.0155C1291.28 82.4272 1291.77 84.474 1290.5 86.4786C1289.03 88.787 1286.64 89.3173 1283.08 87.0498L1272.79 80.5049L1281.81 66.3307L1292.08 72.8627C1295.14 74.8082 1295.67 77.2268 1294.33 79.3327C1293.17 81.1551 1291.25 81.5491 1289.58 80.7725ZM1291.21 74.0998L1282.46 68.534L1279.2 73.657L1287.95 79.2227C1290.05 80.5626 1291.76 80.1667 1292.72 78.6481C1293.69 77.1294 1293.31 75.4397 1291.21 74.0998ZM1275.06 80.1568L1283.97 85.8256C1286.42 87.3845 1288.1 87.0292 1289.13 85.4093C1290.17 83.7691 1289.8 82.0794 1287.35 80.5204L1278.44 74.8517L1275.06 80.1568Z" fill="white"/>
<path d="M1302.38 100.211L1301.01 99.1545L1311.29 85.863L1325.42 96.7838L1315.14 110.075L1313.77 109.018L1323.12 96.9232L1311.73 88.1161L1302.38 100.211Z" fill="white"/>
<path d="M1331.48 114.532L1342.37 111.284L1343.89 112.614L1328.33 117.068C1325.91 117.754 1324.05 117.91 1322.08 116.185C1321.56 115.726 1321.14 115.261 1320.81 114.687L1321.81 113.55C1322.17 114.088 1322.53 114.506 1322.97 114.886C1324.37 116.12 1325.62 116.225 1327.31 115.758L1328.36 115.468L1330.01 100.444L1331.57 101.805L1330.2 113.409C1330.08 114.199 1329.95 114.853 1329.67 115.178L1329.62 115.232L1329.8 115.39L1329.85 115.336C1330.13 115.011 1330.73 114.768 1331.48 114.532Z" fill="white"/>
<path d="M1342.79 134.846L1341.56 133.633L1352.29 122.745L1346.65 117.185L1347.71 116.108L1360.21 128.423L1359.15 129.5L1353.52 123.958L1342.79 134.846Z" fill="white"/>
<path d="M1373.27 142.589L1372.15 143.607L1362.7 133.221L1358.23 137.291L1366.55 146.434L1365.5 147.387L1357.18 138.244L1352.51 142.491L1361.96 152.877L1360.84 153.894L1350.23 142.231L1362.66 130.925L1373.27 142.589Z" fill="white"/>
<path d="M1380.6 175.786L1392.62 166.348L1393.69 167.708L1380.47 178.079L1365.38 158.84L1378.59 148.468L1379.66 149.828L1367.63 159.266L1373.6 166.875L1385.63 157.437L1386.67 158.758L1374.64 168.196L1380.6 175.786Z" fill="white"/>
<path d="M1407.34 187.542L1406.08 188.386L1398.24 176.738L1393.23 180.114L1400.13 190.369L1398.95 191.159L1392.05 180.905L1386.81 184.429L1394.65 196.077L1393.4 196.921L1384.6 183.839L1398.53 174.46L1407.34 187.542Z" fill="white"/>
<path d="M1401.65 210.934C1398.22 205.02 1399.59 199.869 1403.82 197.41C1408.05 194.951 1413.2 196.316 1416.64 202.231C1419.92 207.876 1418.96 212.205 1416.1 214.783L1415.23 213.288C1417.33 211.264 1418.15 207.793 1415.35 202.978C1412.47 198.018 1408.15 196.891 1404.69 198.904C1401.22 200.917 1400.06 205.227 1402.94 210.187C1405.74 215.002 1409.16 216.014 1411.96 215.193L1412.82 216.687C1409.12 217.952 1404.96 216.621 1401.65 210.934Z" fill="white"/>
<path d="M1414.28 233.802L1413.51 232.253L1427.21 225.47L1423.7 218.373L1425.05 217.702L1432.83 233.425L1431.48 234.095L1427.98 227.019L1414.28 233.802Z" fill="white"/>
<path d="M1433.04 254.014L1432.77 254.126C1433.5 256.345 1432.75 258.308 1430.56 259.233C1428.04 260.299 1425.77 259.381 1424.13 255.491L1419.38 244.262L1434.85 237.717L1439.59 248.924C1441 252.262 1440.07 254.558 1437.77 255.53C1435.78 256.372 1433.97 255.6 1433.04 254.014ZM1438.17 249.447L1434.13 239.898L1428.54 242.263L1432.58 251.812C1433.55 254.111 1435.18 254.752 1436.83 254.051C1438.49 253.35 1439.14 251.746 1438.17 249.447ZM1421.44 245.264L1425.56 254.99C1426.69 257.665 1428.27 258.324 1430.04 257.577C1431.83 256.819 1432.48 255.215 1431.35 252.541L1427.23 242.815L1421.44 245.264Z" fill="white"/>
<path d="M1429.54 269.122L1428.63 266.491L1444.51 261.005L1445.06 262.593L1433.08 266.731C1431.76 267.185 1431.07 267.322 1430.04 267.477L1430.11 267.704L1449.63 275.818L1450.53 278.449L1434.66 283.935L1434.11 282.347L1446.08 278.209C1447.4 277.754 1448.09 277.618 1449.14 277.485L1449.05 277.236L1429.54 269.122Z" fill="white"/>
<path d="M1437.29 292.56L1436.56 289.873L1452.77 285.479L1453.21 287.1L1440.98 290.415C1439.64 290.779 1438.94 290.868 1437.9 290.953L1437.96 291.184L1456.87 300.605L1457.6 303.292L1441.39 307.686L1440.95 306.065L1453.18 302.75C1454.52 302.386 1455.22 302.297 1456.27 302.235L1456.2 301.98L1437.29 292.56Z" fill="white"/>
</g>
</svg>
