<svg width="516" height="303" viewBox="0 0 516 303" fill="none" xmlns="http://www.w3.org/2000/svg">
<g opacity="0.5">
<path d="M18.2097 40.3474C11.6215 42.592 6.83594 40.2417 5.25212 35.609C3.6683 30.9762 6.01606 26.1957 12.6042 23.9511C19.1923 21.7065 24.0006 24.049 25.5844 28.6817C27.1683 33.3145 24.7978 38.1028 18.2097 40.3474ZM17.7283 38.9394C23.2714 37.0508 25.2453 33.0315 23.9488 29.239C22.6522 25.4465 18.6287 23.4705 13.0855 25.3591C7.54243 27.2476 5.59124 31.2592 6.8878 35.0517C8.18436 38.8442 12.1852 40.8279 17.7283 38.9394Z" fill="white"/>
<path d="M41.6972 32.85L40.0292 33.3012L36.0241 18.5472L28.3789 20.6154L27.9828 19.1562L44.918 14.5748L45.3141 16.034L37.6921 18.0959L41.6972 32.85Z" fill="white"/>
<path d="M56.0046 20.3756L70.3818 26.2063L67.7043 26.7692L53.7191 21.0523L55.4678 29.3418L53.7768 29.6973L50.309 13.2592L52 12.9036L53.6497 20.7235L63.8372 10.415L66.4442 9.86688L56.0046 20.3756Z" fill="white"/>
<path d="M70.6109 9.06153L80.7914 7.52361C85.0867 6.87474 87.5188 8.66756 88.0044 11.871C88.4864 15.0506 86.6981 17.5053 82.4029 18.1542L73.931 19.434L74.8374 25.4137L73.1288 25.6718L70.6109 9.06153ZM73.6569 17.9462L82.1762 16.6592C85.3562 16.1789 86.6411 14.4071 86.2958 12.1291C85.9469 9.82737 84.1979 8.53815 81.018 9.01853L72.4987 10.3055L73.6569 17.9462Z" fill="white"/>
<path d="M98.2304 11.1372L106.438 10.5038C110.769 10.1696 113.115 12.179 113.367 15.4333C113.617 18.6636 111.608 21.0091 107.277 21.3434L97.3468 22.1097L96.0499 5.3598L97.7727 5.22685L98.2304 11.1372ZM117.591 20.5475L116.294 3.79765L118.017 3.6647L119.314 20.4146L117.591 20.5475ZM98.9051 20.4729L107.161 19.8359C110.367 19.5884 111.826 17.9112 111.644 15.5662C111.463 13.2213 109.761 11.7639 106.555 12.0113L98.2993 12.6483L98.9051 20.4729Z" fill="white"/>
<path d="M138.912 11.2638L138.915 11.5518C141.244 11.7258 142.767 13.1781 142.786 15.554C142.807 18.29 141.092 20.0312 136.868 20.0638L124.677 20.1577L124.547 3.35825L136.714 3.26447C140.338 3.23654 142.104 4.97498 142.123 7.47091C142.14 9.63084 140.734 11.0097 138.912 11.2638ZM136.654 4.77698L126.286 4.85689L126.333 10.9287L136.701 10.8488C139.197 10.8296 140.411 9.57216 140.397 7.77222C140.383 5.97227 139.15 4.75774 136.654 4.77698ZM126.393 18.6325L136.953 18.5511C139.857 18.5287 141.071 17.3193 141.056 15.3994C141.041 13.4554 139.808 12.2409 136.904 12.2633L126.344 12.3447L126.393 18.6325Z" fill="white"/>
<path d="M168.1 21.1645L166.231 21.0564L164.527 17.2797L152.236 16.5688L150.106 20.1237L148.237 20.0156L158.148 3.76079L160.136 3.87582L168.1 21.1645ZM158.22 6.64981L153.06 15.1981L163.866 15.8231L159.73 6.73712C159.328 5.80032 159.192 5.23955 159.214 4.85619L159.215 4.83223L158.952 4.81699L158.951 4.84095C158.928 5.2243 158.729 5.76568 158.22 6.64981Z" fill="white"/>
<path d="M190.841 6.77609L190.66 8.27728L176.72 6.60668L175.998 12.6114L188.27 14.0821L188.101 15.488L175.829 14.0173L175.075 20.2841L189.015 21.9547L188.835 23.4559L173.179 21.5797L175.185 4.89989L190.841 6.77609Z" fill="white"/>
<path d="M198.739 24.8634L197.09 24.5429L200.306 8.05357L203.086 8.5939L208.258 21.0658C208.482 21.6717 208.578 22.0571 208.532 22.2927L208.514 22.3869L208.773 22.4373L208.791 22.3431C208.837 22.1075 209.076 21.7627 209.507 21.3085L218.988 11.6848L221.768 12.2251L218.552 28.7144L216.903 28.3939L219.306 16.074C219.586 14.6371 219.818 13.9487 220.185 12.9443L219.95 12.8985L209.405 23.5869L207.52 23.2206L201.762 9.36347L201.503 9.3131C201.489 10.3862 201.422 11.1066 201.142 12.5435L198.739 24.8634Z" fill="white"/>
<path d="M240.612 34.7477C234.052 32.8121 231.508 28.1328 232.897 23.4382C234.287 18.7436 238.971 16.1969 245.531 18.1325C251.792 19.9798 254.071 23.7801 253.761 27.6172L252.104 27.1282C252.24 24.2157 250.449 21.135 245.109 19.5593C239.607 17.9361 235.693 20.0841 234.555 23.9272C233.417 27.7703 235.533 31.6977 241.035 33.3209C246.375 34.8965 249.556 33.2827 251.028 30.7642L252.685 31.2532C250.858 34.7179 246.919 36.6086 240.612 34.7477Z" fill="white"/>
<path d="M278.043 29.3733L277.516 30.7906L264.35 25.915L262.243 31.5843L273.834 35.8765L273.341 37.2038L261.75 32.9116L259.551 38.8283L272.718 43.7039L272.191 45.1212L257.404 39.6456L263.256 23.8976L278.043 29.3733Z" fill="white"/>
<path d="M284.583 39.5312L293.531 43.5075C297.172 45.1254 298.157 47.6903 296.945 50.4083C295.743 53.1044 293.174 54.0905 289.534 52.4727L279.05 47.8141L285.892 32.4704L300.915 39.1463L300.3 40.5273L286.811 34.5335L284.583 39.5312ZM281.245 47.1349L290.149 51.0917C292.737 52.2417 294.545 51.5478 295.385 49.6628C296.236 47.7557 295.542 45.9508 292.955 44.8008L284.05 40.844L281.245 47.1349Z" fill="white"/>
<path d="M312.854 45.0236L322.023 49.8114L314.226 64.6925L312.694 63.8927L315.691 58.1741L308.627 54.4861C306.521 53.3863 305.738 53.3294 304.19 54.5785L300.461 57.5053L298.653 56.5611L302.271 53.7932C303.917 52.5137 304.748 52.2711 306.102 52.8424L306.224 52.6085C304.317 51.2334 303.749 48.8522 304.941 46.5775C306.277 44.0265 309.195 43.113 312.854 45.0236ZM308.721 52.9106L316.401 56.9208L319.832 50.3731L312.152 46.3629C309.429 44.941 307.419 45.5703 306.395 47.5261C305.37 49.4819 305.998 51.4887 308.721 52.9106Z" fill="white"/>
<path d="M343.153 71.7568L342.998 71.9996C344.86 73.4097 345.349 75.455 344.072 77.4586C342.602 79.7658 340.214 80.2965 336.649 78.0318L326.357 71.4949L335.387 57.3278L345.658 63.8518C348.717 65.7948 349.254 68.2116 347.913 70.3164C346.752 72.1379 344.821 72.5323 343.153 71.7568ZM344.785 65.0882L336.033 59.5293L332.769 64.6497L341.521 70.2086C343.628 71.5469 345.332 71.1507 346.3 69.6328C347.267 68.1149 346.892 66.4265 344.785 65.0882ZM328.629 71.1463L337.543 76.8082C339.994 78.3652 341.672 78.0095 342.704 76.3904C343.749 74.7511 343.374 73.0627 340.922 71.5056L332.008 65.8438L328.629 71.1463Z" fill="white"/>
<path d="M355.996 91.1984L354.628 90.1427L364.914 76.8597L379.05 87.7687L368.764 101.052L367.396 99.9961L376.757 87.9085L365.357 79.1109L355.996 91.1984Z" fill="white"/>
<path d="M385.141 105.518L396.043 102.272L397.56 103.6L381.988 108.052C379.564 108.738 377.702 108.894 375.734 107.171C375.21 106.712 374.788 106.247 374.461 105.674L375.459 104.538C375.818 105.075 376.186 105.493 376.619 105.872C378.028 107.105 379.277 107.21 380.966 106.743L382.019 106.453L383.674 91.4422L385.227 92.8018L383.859 104.395C383.74 105.185 383.613 105.839 383.328 106.163L383.28 106.217L383.461 106.376L383.508 106.321C383.793 105.997 384.39 105.754 385.141 105.518Z" fill="white"/>
<path d="M396.476 125.828L395.244 124.616L405.985 113.736L400.34 108.182L401.402 107.106L413.908 119.41L412.845 120.486L407.217 114.948L396.476 125.828Z" fill="white"/>
<path d="M426.996 133.577L425.877 134.593L416.42 124.216L411.943 128.282L420.268 137.417L419.22 138.369L410.894 129.234L406.222 133.477L415.679 143.855L414.559 144.871L403.939 133.217L416.375 121.922L426.996 133.577Z" fill="white"/>
<path d="M434.348 166.761L446.383 157.333L447.451 158.692L434.226 169.052L419.112 149.826L432.337 139.465L433.405 140.824L421.37 150.252L427.348 157.855L439.382 148.427L440.421 149.748L428.386 159.176L434.348 166.761Z" fill="white"/>
<path d="M461.126 178.531L459.871 179.375L452.023 167.733L447.003 171.105L453.912 181.354L452.736 182.144L445.828 171.895L440.588 175.415L448.436 187.057L447.181 187.9L438.367 174.825L452.313 165.457L461.126 178.531Z" fill="white"/>
<path d="M455.456 201.917C452.016 196.005 453.381 190.858 457.617 188.402C461.852 185.946 467.007 187.313 470.447 193.225C473.73 198.867 472.776 203.193 469.915 205.768L469.046 204.274C471.145 202.252 471.96 198.784 469.159 193.971C466.275 189.013 461.953 187.885 458.486 189.895C455.018 191.906 453.859 196.213 456.744 201.17C459.544 205.983 462.965 206.995 465.765 206.176L466.634 207.67C462.926 208.932 458.764 207.601 455.456 201.917Z" fill="white"/>
<path d="M468.102 224.787L467.334 223.238L481.04 216.465L477.521 209.369L478.877 208.7L486.671 224.417L485.316 225.087L481.808 218.013L468.102 224.787Z" fill="white"/>
<path d="M486.889 245.004L486.624 245.116C487.355 247.334 486.596 249.295 484.407 250.22C481.887 251.284 479.621 250.365 477.973 246.476L473.216 235.25L488.693 228.715L493.44 239.919C494.854 243.256 493.923 245.55 491.624 246.521C489.634 247.361 487.821 246.59 486.889 245.004ZM492.019 240.441L487.974 230.894L482.381 233.256L486.425 242.802C487.399 245.101 489.026 245.742 490.685 245.042C492.343 244.342 492.993 242.739 492.019 240.441ZM475.283 236.253L479.403 245.976C480.536 248.65 482.119 249.31 483.888 248.563C485.679 247.807 486.329 246.204 485.196 243.53L481.076 233.807L475.283 236.253Z" fill="white"/>
<path d="M483.397 260.111L482.486 257.48L498.368 252.003L498.917 253.59L486.938 257.722C485.622 258.176 484.933 258.312 483.894 258.467L483.973 258.694L503.494 266.813L504.404 269.444L488.522 274.921L487.973 273.334L499.952 269.202C501.268 268.748 501.957 268.612 503.004 268.48L502.917 268.23L483.397 260.111Z" fill="white"/>
<path d="M491.161 283.551L490.432 280.864L506.649 276.477L507.089 278.098L494.857 281.407C493.513 281.771 492.816 281.86 491.77 281.944L491.832 282.176L510.755 291.602L511.484 294.288L495.267 298.675L494.827 297.054L507.059 293.745C508.403 293.381 509.1 293.292 510.153 293.231L510.083 292.977L491.161 283.551Z" fill="white"/>
</g>
</svg>
