<svg width="409" height="332" viewBox="0 0 409 332" fill="none" xmlns="http://www.w3.org/2000/svg">
<g opacity="0.5">
<path d="M11.7089 326.801C5.08983 326.801 1.50641 323.217 1.50641 318.561C1.50641 313.905 5.08983 310.322 11.7089 310.322C18.328 310.322 21.9342 313.905 21.9342 318.561C21.9342 323.217 18.328 326.801 11.7089 326.801ZM11.7089 325.386C17.278 325.386 20.2909 322.373 20.2909 318.561C20.2909 314.75 17.278 311.737 11.7089 311.737C6.13975 311.737 3.14976 314.75 3.14976 318.561C3.14976 322.373 6.13975 325.386 11.7089 325.386Z" fill="white"/>
<path d="M34.1431 326.55H32.4997V312.011H24.9677V310.573H41.6523V312.011H34.1431V326.55Z" fill="white"/>
<path d="M49.3933 318.497L61.7529 326.547L59.1512 326.587L47.1367 318.715L47.2611 326.771L45.618 326.796L45.3713 310.821L47.0145 310.796L47.1318 318.395L58.5166 310.618L61.0498 310.579L49.3933 318.497Z" fill="white"/>
<path d="M63.4535 311.131L73.2188 310.414C77.3389 310.112 79.5136 311.989 79.7393 315.062C79.9632 318.112 78.0877 320.309 73.9676 320.612L65.8412 321.209L66.2624 326.945L64.6234 327.065L63.4535 311.131ZM65.6904 319.778L73.8623 319.178C76.9126 318.954 78.2608 317.367 78.1003 315.182C77.9382 312.974 76.3744 311.624 73.3241 311.848L65.1522 312.448L65.6904 319.778Z" fill="white"/>
<path d="M86.8973 315.911L94.6334 314.71C98.7157 314.076 101.087 315.81 101.563 318.877C102.036 321.922 100.302 324.293 96.2196 324.927L86.8596 326.38L84.4085 310.592L86.0324 310.34L86.8973 315.911ZM105.94 323.417L103.489 307.629L105.113 307.377L107.564 323.165L105.94 323.417ZM88.2178 324.714L95.999 323.506C99.0212 323.036 100.282 321.339 99.9391 319.129C99.5959 316.919 97.8762 315.661 94.854 316.13L87.0728 317.338L88.2178 324.714Z" fill="white"/>
<path d="M125.172 311.754L125.232 312.021C127.432 311.718 129.138 312.765 129.629 314.971C130.195 317.51 128.948 319.472 125.026 320.344L113.709 322.863L110.237 307.268L121.533 304.754C124.897 304.005 126.886 305.269 127.401 307.587C127.848 309.592 126.816 311.154 125.172 311.754ZM121.779 306.172L112.154 308.315L113.409 313.951L123.033 311.809C125.35 311.293 126.229 309.882 125.857 308.211C125.485 306.54 124.096 305.657 121.779 306.172ZM115 321.103L124.803 318.921C127.499 318.321 128.387 316.954 127.991 315.172C127.589 313.367 126.2 312.484 123.504 313.084L113.701 315.266L115 321.103Z" fill="white"/>
<path d="M152.947 313.585L151.236 314.077L148.517 311.225L137.263 314.458L136.473 318.319L134.762 318.81L138.532 301.104L140.352 300.58L152.947 313.585ZM139.507 303.673L137.571 312.968L147.465 310.126L140.889 303.276C140.233 302.562 139.935 302.102 139.834 301.751L139.827 301.729L139.586 301.798L139.592 301.82C139.693 302.171 139.685 302.72 139.507 303.673Z" fill="white"/>
<path d="M165.341 293.024L165.82 294.38L153.233 298.835L155.152 304.257L166.233 300.335L166.683 301.604L155.602 305.526L157.605 311.185L170.192 306.73L170.672 308.085L156.535 313.089L151.204 298.027L165.341 293.024Z" fill="white"/>
<path d="M177.428 306.579L175.968 307.229L169.471 292.632L171.932 291.537L182.77 298.43C183.275 298.78 183.56 299.027 183.653 299.236L183.69 299.319L183.92 299.217L183.883 299.134C183.79 298.925 183.787 298.527 183.875 297.938L186.007 285.272L188.467 284.177L194.964 298.773L193.505 299.423L188.65 288.517C188.084 287.245 187.889 286.582 187.627 285.6L187.418 285.693L185.039 299.768L183.371 300.511L171.321 292.858L171.091 292.96C171.666 293.804 172.007 294.401 172.574 295.673L177.428 306.579Z" fill="white"/>
<path d="M216.327 289.296C210.655 292.48 205.776 291.109 203.497 287.049C201.218 282.988 202.589 278.109 208.261 274.926C213.675 271.887 217.778 272.855 220.189 275.612L218.756 276.416C216.86 274.391 213.571 273.568 208.954 276.16C204.197 278.83 203.064 282.92 204.93 286.244C206.796 289.568 210.878 290.732 215.634 288.062C220.252 285.47 221.262 282.233 220.521 279.561L221.954 278.756C223.105 282.298 221.781 286.235 216.327 289.296Z" fill="white"/>
<path d="M233.334 260.774L234.11 261.984L222.871 269.193L225.977 274.035L235.871 267.688L236.598 268.822L226.704 275.168L229.945 280.221L241.184 273.012L241.96 274.222L229.338 282.319L220.712 268.87L233.334 260.774Z" fill="white"/>
<path d="M242.849 263.16L250.359 257.654C253.415 255.415 255.999 255.813 257.672 258.095C259.332 260.359 258.934 262.944 255.878 265.184L247.079 271.634L237.633 258.748L250.243 249.504L251.093 250.664L239.772 258.963L242.849 263.16ZM247.554 269.502L255.028 264.024C257.2 262.432 257.48 260.613 256.32 259.03C255.146 257.428 253.328 257.148 251.155 258.741L243.681 264.219L247.554 269.502Z" fill="white"/>
<path d="M258.802 243.575L266.361 237.279L276.586 249.555L275.324 250.607L271.394 245.889L265.572 250.739C263.835 252.185 263.499 252.852 264.031 254.666L265.24 259.006L263.749 260.248L262.639 256.063C262.117 254.152 262.207 253.333 263.204 252.355L263.043 252.162C261.138 253.333 258.838 252.962 257.275 251.085C255.522 248.981 255.786 246.087 258.802 243.575ZM264.222 250.081L270.553 244.808L266.053 239.406L259.722 244.68C257.478 246.55 257.296 248.543 258.64 250.156C259.984 251.769 261.977 251.951 264.222 250.081Z" fill="white"/>
<path d="M291.82 225.136L292.013 225.33C293.713 223.9 295.714 223.875 297.306 225.479C299.139 227.325 299.131 229.649 296.28 232.479L288.052 240.648L276.795 229.31L285.008 221.157C287.453 218.729 289.81 218.737 291.482 220.422C292.929 221.88 292.89 223.752 291.82 225.136ZM285.972 222.226L278.975 229.173L283.043 233.271L290.04 226.324C291.725 224.651 291.715 222.989 290.509 221.774C289.303 220.559 287.657 220.553 285.972 222.226ZM288.205 238.47L295.332 231.395C297.292 229.449 297.314 227.819 296.027 226.523C294.725 225.211 293.079 225.205 291.119 227.151L283.992 234.226L288.205 238.47Z" fill="white"/>
<path d="M310.232 219.286L309.171 220.541L296.97 210.227L307.933 197.258L320.134 207.573L319.073 208.828L307.97 199.442L299.129 209.9L310.232 219.286Z" fill="white"/>
<path d="M324.764 191.52L320.892 181.427L322.043 179.893L327.398 194.323C328.224 196.569 328.507 198.322 327.014 200.312C326.617 200.842 326.206 201.275 325.686 201.627L324.535 200.764C325.019 200.385 325.389 200.006 325.718 199.568C326.786 198.144 326.795 196.952 326.229 195.387L325.877 194.41L311.512 193.935L312.689 192.365L323.791 192.817C324.549 192.871 325.179 192.944 325.508 193.191L325.562 193.232L325.699 193.049L325.645 193.008C325.316 192.762 325.042 192.214 324.764 191.52Z" fill="white"/>
<path d="M341.973 179.933L341.06 181.3L328.968 173.227L324.786 179.492L323.59 178.693L332.854 164.817L334.05 165.615L329.881 171.86L341.973 179.933Z" fill="white"/>
<path d="M342.205 150.202L343.445 150.929L336.696 162.45L341.659 165.357L347.601 155.214L348.763 155.895L342.821 166.038L348.001 169.072L354.75 157.551L355.99 158.277L348.411 171.216L334.625 163.141L342.205 150.202Z" fill="white"/>
<path d="M367.991 133.446L354.867 127.19L355.574 125.707L369.997 132.582L359.988 153.576L345.566 146.701L346.273 145.218L359.397 151.474L363.356 143.171L350.231 136.915L350.919 135.472L364.043 141.729L367.991 133.446Z" fill="white"/>
<path d="M363.804 107.612L365.136 108.153L360.119 120.527L365.45 122.688L369.866 111.795L371.114 112.301L366.698 123.194L372.261 125.449L377.278 113.075L378.61 113.616L372.976 127.512L358.169 121.509L363.804 107.612Z" fill="white"/>
<path d="M384.578 99.7579C382.57 105.945 378.055 108.247 373.627 106.81C369.198 105.373 366.896 100.858 368.904 94.6709C370.82 88.7659 374.492 86.6941 378.133 87.0838L377.626 88.6469C374.86 88.4451 371.884 90.0711 370.25 95.1077C368.566 100.296 370.508 104.07 374.134 105.247C377.76 106.424 381.548 104.51 383.232 99.321C384.867 94.2844 383.413 91.2211 381.056 89.7601L381.563 88.197C384.811 90.019 386.509 93.8094 384.578 99.7579Z" fill="white"/>
<path d="M391.18 78.6536L390.757 80.2413L376.709 76.4917L374.767 83.769L373.378 83.3982L377.681 67.2779L379.07 67.6488L377.133 74.904L391.18 78.6536Z" fill="white"/>
<path d="M389.397 51.7066L389.665 51.7589C390.268 49.6206 391.909 48.4753 394.127 48.9071C396.681 49.4044 397.98 51.3315 397.212 55.2746L394.997 66.6556L379.314 63.6022L381.525 52.2436C382.184 48.8606 384.138 47.5436 386.468 47.9972C388.484 48.3898 389.504 49.9603 389.397 51.7066ZM382.924 52.5856L381.039 62.264L386.708 63.3676L388.592 53.6892C389.046 51.3592 388.103 49.9898 386.423 49.6626C384.743 49.3355 383.377 50.2556 382.924 52.5856ZM393.899 64.7678L395.818 54.9102C396.346 52.1993 395.449 50.8386 393.656 50.4897C391.842 50.1363 390.476 51.0565 389.949 53.7673L388.029 63.6249L393.899 64.7678Z" fill="white"/>
<path d="M400.094 43.0703L399.758 45.6965L383.91 43.6704L384.113 42.0856L396.067 43.6139C397.38 43.7818 398.025 43.9563 398.975 44.2618L399.004 44.0354L385.801 28.8864L386.136 26.2602L401.984 28.2863L401.782 29.8711L389.828 28.3428C388.515 28.1749 387.87 28.0004 386.922 27.6722L386.89 27.9213L400.094 43.0703Z" fill="white"/>
<path d="M403.632 19.048L403.479 21.6912L387.529 20.767L387.621 19.172L399.652 19.8691C400.974 19.9457 401.629 20.0751 402.599 20.3142L402.612 20.0863L388.391 5.88767L388.544 3.24448L404.494 4.16866L404.402 5.76369L392.371 5.06659C391.049 4.99001 390.394 4.86058 389.426 4.59874L389.411 4.84938L403.632 19.048Z" fill="white"/>
</g>
</svg>
