<svg width="36" height="36" viewBox="0 0 36 36" fill="none" xmlns="http://www.w3.org/2000/svg">
<rect width="36" height="36" rx="18" />
<g clip-path="url(#clip0_45_1335)">
<path fill-rule="evenodd" clip-rule="evenodd" d="M20.829 18.666C21.0624 18.479 21.3605 18.3924 21.6577 18.4252C21.8049 18.4415 21.9475 18.4866 22.0772 18.5579C22.207 18.6292 22.3214 18.7254 22.414 18.841C22.5066 18.9566 22.5755 19.0892 22.6168 19.2314C22.6581 19.3736 22.671 19.5226 22.6548 19.6697C22.6385 19.8169 22.5934 19.9595 22.5221 20.0892C22.4508 20.219 22.3546 20.3334 22.239 20.426C22.186 20.467 21.192 21.254 19.532 21.592L22.037 24.075C22.2485 24.2862 22.3674 24.5729 22.3676 24.8718C22.3678 25.1707 22.2492 25.4575 22.038 25.669C21.8268 25.8805 21.5401 25.9994 21.2412 25.9996C20.9423 25.9998 20.6555 25.8812 20.444 25.67L18.012 23.302L15.802 25.655C15.6995 25.762 15.5769 25.8477 15.4412 25.9072C15.3055 25.9667 15.1594 25.9987 15.0112 26.0015C14.8631 26.0043 14.7159 25.9778 14.578 25.9235C14.4402 25.8691 14.3144 25.7881 14.208 25.685C14.1012 25.5822 14.0158 25.4594 13.9566 25.3236C13.8973 25.1878 13.8654 25.0417 13.8627 24.8935C13.86 24.7454 13.8866 24.5981 13.9409 24.4603C13.9951 24.3224 14.0761 24.1966 14.179 24.09L16.558 21.605C14.851 21.275 13.815 20.468 13.762 20.425C13.5287 20.238 13.3793 19.966 13.3466 19.6689C13.3139 19.3717 13.4005 19.0738 13.5875 18.8405C13.7745 18.6072 14.0465 18.4578 14.3436 18.4251C14.6408 18.3924 14.9387 18.479 15.172 18.666C15.182 18.674 16.266 19.488 18.012 19.489C19.757 19.489 20.818 18.674 20.828 18.666H20.829ZM18.067 10C19.1666 10 20.2211 10.4368 20.9987 11.2143C21.7762 11.9919 22.213 13.0464 22.213 14.146C22.213 15.2456 21.7762 16.3001 20.9987 17.0777C20.2211 17.8552 19.1666 18.292 18.067 18.292C16.9674 18.292 15.9129 17.8552 15.1353 17.0777C14.3578 16.3001 13.921 15.2456 13.921 14.146C13.921 13.0464 14.3578 11.9919 15.1353 11.2143C15.9129 10.4368 16.9674 10 18.067 10ZM18.067 12.432C17.8419 12.432 17.619 12.4763 17.4111 12.5625C17.2031 12.6486 17.0142 12.7749 16.855 12.934C16.6959 13.0932 16.5696 13.2821 16.4835 13.4901C16.3973 13.698 16.353 13.9209 16.353 14.146C16.353 14.3711 16.3973 14.594 16.4835 14.8019C16.5696 15.0099 16.6959 15.1988 16.855 15.358C17.0142 15.5171 17.2031 15.6434 17.4111 15.7295C17.619 15.8157 17.8419 15.86 18.067 15.86C18.5216 15.86 18.9575 15.6794 19.279 15.358C19.6004 15.0365 19.781 14.6006 19.781 14.146C19.781 13.6914 19.6004 13.2555 19.279 12.934C18.9575 12.6126 18.5216 12.432 18.067 12.432Z" fill="white"/>
</g>
<defs>
<clipPath id="clip0_45_1335">
<rect width="16" height="16" fill="white" transform="translate(10 10)"/>
</clipPath>
</defs>
</svg>
