<svg width="115" height="51" viewBox="0 0 115 51" fill="none" xmlns="http://www.w3.org/2000/svg">
<path fill-rule="evenodd" clip-rule="evenodd" d="M0 6C0 2.68629 2.68629 0 6 0H69C72.3137 0 75 2.68629 75 6V8C75 11.3137 77.6863 14 81 14H94C97.3137 14 100 16.6863 100 20V22C100 25.3137 102.686 28 106 28H109C112.314 28 115 30.6863 115 34V45C115 48.3137 112.314 51 109 51H6C2.68629 51 0 48.3137 0 45V37V28V23V14V6Z" fill="#F0FFB5"/>
<path d="M7.376 15H6.14V6.6H15.272V15H14.036V7.656H7.376V15ZM21.1181 15.144C18.4181 15.144 17.0141 13.74 17.0141 11.976C17.0141 10.2 18.4181 8.796 21.1181 8.796C23.8181 8.796 25.2221 10.2 25.2221 11.976C25.2221 13.74 23.8181 15.144 21.1181 15.144ZM21.1181 14.22C23.1101 14.22 24.1181 13.212 24.1181 11.976C24.1181 10.728 23.1101 9.72 21.1181 9.72C19.1261 9.72 18.1181 10.728 18.1181 11.976C18.1181 13.212 19.1261 14.22 21.1181 14.22ZM30.4562 15.144C27.7442 15.144 26.4842 13.884 26.4842 12.144C26.4842 10.416 27.7442 9.156 30.1922 9.156C32.3282 9.156 33.3362 10.056 33.5762 11.064H33.7082V10.86C33.7082 8.7 32.3882 7.38 29.7362 7.38C28.5602 7.38 27.4562 7.56 26.6042 7.944V7.02C27.4082 6.636 28.4882 6.456 29.7602 6.456C32.9522 6.456 34.6922 8.196 34.6922 11.16C34.6922 11.88 34.5842 12.492 34.3442 13.056C33.7802 14.388 32.4722 15.144 30.4562 15.144ZM30.5162 14.22C32.5202 14.22 33.4562 13.284 33.4562 12.12C33.4562 10.944 32.5202 10.02 30.5162 10.02C28.5242 10.02 27.5882 10.956 27.5882 12.12C27.5882 13.284 28.5242 14.22 30.5162 14.22ZM38.8916 11.856L43.3196 15H41.6156L37.4156 11.94V15H36.3116V8.94H37.4156V11.784L41.5196 8.94H43.1996L38.8916 11.856ZM46.7565 15.144C44.7045 15.144 43.9245 14.364 43.9245 13.32C43.9245 12.288 44.7045 11.508 46.7565 11.508C48.4605 11.508 49.3845 11.928 50.2005 12.408V11.796C50.2005 10.572 49.3485 9.72 47.5125 9.72C45.7485 9.72 45.0045 10.476 44.8485 11.16H43.7445C43.9005 9.924 45.0045 8.796 47.5245 8.796C50.1045 8.796 51.3045 9.996 51.3045 11.832V13.632C51.3045 14.04 51.4845 14.22 51.8325 14.22C51.9645 14.22 52.0965 14.196 52.2285 14.16V15.048C52.0005 15.12 51.8085 15.144 51.6165 15.144C50.8125 15.144 50.3565 14.688 50.3565 14.016V13.932H50.2005V13.944C50.2005 14.496 48.9285 15.144 46.7565 15.144ZM47.1285 14.28C48.5925 14.28 49.5405 13.884 50.2005 13.476V13.044C49.4445 12.672 48.5805 12.312 47.1285 12.312C45.4605 12.312 45.0285 12.744 45.0285 13.296C45.0285 13.848 45.4605 14.28 47.1285 14.28ZM57.0101 15.144C54.4181 15.144 53.0141 13.74 53.0141 11.976C53.0141 10.2 54.4181 8.796 57.0101 8.796C59.3861 8.796 60.7901 9.96 60.9941 11.46H59.8901C59.7101 10.548 58.7741 9.72 57.0101 9.72C55.1261 9.72 54.1181 10.728 54.1181 11.976C54.1181 13.212 55.1261 14.22 57.0101 14.22C58.7741 14.22 59.7101 13.392 59.8901 12.48H60.9941C60.7901 13.98 59.3861 15.144 57.0101 15.144ZM65.5463 15H64.4423V9.864H61.4783V8.94H68.5103V9.864H65.5463V15ZM10.7 29.144C7.136 29.144 5.84 27.848 5.84 26.072V25.88H7.076V26.048C7.076 27.248 7.976 28.148 10.7 28.148C13.652 28.148 14.324 27.476 14.324 26.648C14.324 23.816 5.9 26.684 5.9 22.868C5.9 21.536 6.98 20.456 10.7 20.456C14.228 20.456 15.5 21.728 15.5 23.432V23.54H14.264V23.432C14.264 22.328 13.388 21.452 10.7 21.452C7.832 21.452 7.136 22.148 7.136 22.916C7.136 25.496 15.56 22.664 15.56 26.648C15.56 28.064 14.48 29.144 10.7 29.144ZM20.6278 29H19.3318V28.796C19.3318 25.652 20.6038 23.276 23.9638 21.812V21.656H17.0038V20.6H25.1638V21.836C21.8038 23.192 20.6278 25.508 20.6278 28.796V29ZM38.5494 29H37.2414L36.3894 27.308H30.5694L29.7174 29H28.4094L32.7654 20.6H34.1934L38.5494 29ZM33.0054 22.508L31.0734 26.312H35.8854L33.9534 22.508C33.6774 21.956 33.5574 21.596 33.5574 21.344V21.332H33.4014V21.344C33.4014 21.596 33.2814 21.956 33.0054 22.508ZM41.8734 21.728C41.3934 21.728 41.1054 21.44 41.1054 21.056C41.1054 20.672 41.3934 20.384 41.8734 20.384C42.3534 20.384 42.6414 20.672 42.6414 21.056C42.6414 21.44 42.3534 21.728 41.8734 21.728ZM42.5934 24.308V28.076H44.7294V29H39.0894V28.076H41.5254V24.68C41.5254 24.032 41.2734 23.78 40.6374 23.78C40.3134 23.78 40.0974 23.84 39.8094 23.948V23C40.1814 22.856 40.5414 22.796 40.9734 22.796C42.1014 22.796 42.5934 23.288 42.5934 24.308ZM47.0953 29H45.9913V22.94H47.0953L46.9273 24.68H47.0833C47.3713 23.648 48.2953 22.796 49.9273 22.796C51.9793 22.796 53.0833 23.9 53.0833 25.82V26.036H51.9793V25.904C51.9793 24.608 51.1273 23.756 49.5313 23.756C47.9953 23.756 47.0953 24.608 47.0953 26.276V29ZM57.0597 21.956V28.076H59.4477V29H53.2677V28.076H55.9557V22.34C55.9557 21.692 55.7037 21.44 54.9837 21.44C54.6117 21.44 54.3717 21.5 54.0237 21.644V20.696C54.4437 20.516 54.8637 20.456 55.3077 20.456C56.5677 20.456 57.0597 20.948 57.0597 21.956ZM63.014 21.728C62.534 21.728 62.246 21.44 62.246 21.056C62.246 20.672 62.534 20.384 63.014 20.384C63.494 20.384 63.782 20.672 63.782 21.056C63.782 21.44 63.494 21.728 63.014 21.728ZM63.734 24.308V28.076H65.87V29H60.23V28.076H62.666V24.68C62.666 24.032 62.414 23.78 61.778 23.78C61.454 23.78 61.238 23.84 60.95 23.948V23C61.322 22.856 61.682 22.796 62.114 22.796C63.242 22.796 63.734 23.288 63.734 24.308ZM68.2359 29H67.1319V22.94H68.2359L68.0439 24.86H68.1999C68.4999 23.708 69.5319 22.796 71.3559 22.796C73.5399 22.796 74.8479 24.104 74.8479 26.324V29H73.7439V26.552C73.7439 24.728 72.7359 23.72 70.9839 23.72C69.2439 23.72 68.2359 24.728 68.2359 26.552V29ZM84.4341 25.976C84.4341 26.168 84.4221 26.3 84.4101 26.408H77.4501C77.6541 27.488 78.6501 28.28 80.4021 28.28C82.1541 28.28 82.8621 27.572 83.1621 27.08H84.2661C83.9421 27.968 82.8861 29.144 80.3781 29.144C77.7501 29.144 76.3461 27.74 76.3461 25.976C76.3461 24.2 77.7501 22.796 80.3901 22.796C83.0301 22.796 84.4341 24.2 84.4341 25.976ZM80.3901 23.66C78.6141 23.66 77.6181 24.476 77.4381 25.604H83.3421C83.1621 24.476 82.1661 23.66 80.3901 23.66ZM89.4671 29.144C86.6351 29.144 85.6991 28.208 85.6991 26.984V26.84H86.8031V26.972C86.8031 27.668 87.4151 28.28 89.4671 28.28C91.6511 28.28 92.1311 27.8 92.1311 27.272C92.1311 25.424 85.7591 27.428 85.7591 24.608C85.7591 23.624 86.5871 22.796 89.4671 22.796C92.1551 22.796 93.1271 23.78 93.1751 25.004H92.0711C92.0351 24.272 91.4351 23.66 89.4671 23.66C87.3551 23.66 86.8631 24.152 86.8631 24.668C86.8631 26.408 93.2351 24.392 93.2351 27.32C93.2351 28.34 92.4311 29.144 89.4671 29.144ZM7.712 43H5.96V36.94H7.028V40.708C7.028 41.464 6.956 41.884 6.848 42.4H7.004L11.852 36.94H13.604V43H12.536V39.232C12.536 38.476 12.608 38.056 12.716 37.54H12.56L7.712 43ZM22.5218 43.144C19.9298 43.144 18.5258 41.74 18.5258 39.976C18.5258 38.2 19.9298 36.796 22.5218 36.796C24.8978 36.796 26.3018 37.96 26.5058 39.46H25.4018C25.2218 38.548 24.2858 37.72 22.5218 37.72C20.6378 37.72 19.6298 38.728 19.6298 39.976C19.6298 41.212 20.6378 42.22 22.5218 42.22C24.2858 42.22 25.2218 41.392 25.4018 40.48H26.5058C26.3018 41.98 24.8978 43.144 22.5218 43.144ZM31.058 43H29.954V37.864H26.99V36.94H34.022V37.864H31.058V43ZM38.7857 41.416L41.1377 36.94H42.4337L38.8817 43.42C38.0297 44.98 37.2737 45.58 35.9777 45.58C35.5937 45.58 35.3177 45.532 34.9817 45.412V44.488C35.2937 44.608 35.5457 44.656 35.8577 44.656C36.7697 44.656 37.2137 44.284 37.7297 43.396L37.8857 43.132L34.5017 36.94H35.7977L38.1137 41.416C38.2937 41.764 38.3777 42.052 38.3777 42.28V42.292H38.5337V42.28C38.5337 42.052 38.6057 41.764 38.7857 41.416ZM47.0734 43.144C44.3614 43.144 43.1014 41.884 43.1014 40.144C43.1014 38.416 44.3614 37.156 46.8094 37.156C48.9454 37.156 49.9534 38.056 50.1934 39.064H50.3254V38.86C50.3254 36.7 49.0054 35.38 46.3534 35.38C45.1774 35.38 44.0734 35.56 43.2214 35.944V35.02C44.0254 34.636 45.1054 34.456 46.3774 34.456C49.5694 34.456 51.3094 36.196 51.3094 39.16C51.3094 39.88 51.2014 40.492 50.9614 41.056C50.3974 42.388 49.0894 43.144 47.0734 43.144ZM47.1334 42.22C49.1374 42.22 50.0734 41.284 50.0734 40.12C50.0734 38.944 49.1374 38.02 47.1334 38.02C45.1414 38.02 44.2054 38.956 44.2054 40.12C44.2054 41.284 45.1414 42.22 47.1334 42.22ZM54.6808 43H52.9288V36.94H53.9968V40.708C53.9968 41.464 53.9248 41.884 53.8168 42.4H53.9728L58.8208 36.94H60.5728V43H59.5048V39.232C59.5048 38.476 59.5768 38.056 59.6848 37.54H59.5288L54.6808 43ZM64.2433 43H62.4913V36.94H63.5593V40.708C63.5593 41.464 63.4873 41.884 63.3793 42.4H63.5353L68.3833 36.94H70.1353V43H69.0673V39.232C69.0673 38.476 69.1393 38.056 69.2473 37.54H69.0913L64.2433 43ZM79.4338 43H78.1978V35.656H74.3938V34.6H83.2378V35.656H79.4338V43ZM87.0478 43.144C84.3478 43.144 82.9438 41.74 82.9438 39.976C82.9438 38.2 84.3478 36.796 87.0478 36.796C89.7478 36.796 91.1518 38.2 91.1518 39.976C91.1518 41.74 89.7478 43.144 87.0478 43.144ZM87.0478 42.22C89.0398 42.22 90.0478 41.212 90.0478 39.976C90.0478 38.728 89.0398 37.72 87.0478 37.72C85.0558 37.72 84.0478 38.728 84.0478 39.976C84.0478 41.212 85.0558 42.22 87.0478 42.22ZM92.4195 43.144C92.1675 43.144 91.9395 43.108 91.6995 43.024V42.076C91.9155 42.148 92.0475 42.16 92.1675 42.16C92.9115 42.16 93.1755 41.644 93.2595 40.888L93.7035 36.94H99.7875V43H98.6835V37.864H94.6755L94.3155 41.128C94.1715 42.4 93.5355 43.144 92.4195 43.144ZM104.282 39.856L108.71 43H107.006L102.806 39.94V43H101.702V36.94H102.806V39.784L106.91 36.94H108.59L104.282 39.856Z" fill="#614D98"/>
</svg>
