<svg width="36" height="36" viewBox="0 0 36 36" fill="none" xmlns="http://www.w3.org/2000/svg">
<rect width="36" height="36" rx="18" />
<path fill-rule="evenodd" clip-rule="evenodd" d="M25.633 13.843C25.744 13.473 25.633 13.2 25.103 13.2H23.353C22.908 13.2 22.703 13.435 22.592 13.695C22.592 13.695 21.702 15.865 20.44 17.274C20.033 17.682 19.847 17.812 19.624 17.812C19.514 17.812 19.352 17.682 19.352 17.312V13.842C19.352 13.397 19.223 13.199 18.852 13.199H16.102C15.823 13.199 15.656 13.406 15.656 13.601C15.656 14.023 16.286 14.121 16.351 15.307V17.885C16.351 18.45 16.249 18.553 16.027 18.553C15.433 18.553 13.99 16.373 13.134 13.879C12.966 13.395 12.798 13.199 12.351 13.199H10.6C10.1 13.2 10 13.435 10 13.695C10 14.159 10.593 16.458 12.763 19.499C14.21 21.576 16.247 22.702 18.102 22.702C19.215 22.702 19.352 22.452 19.352 22.022V20.452C19.352 19.952 19.458 19.852 19.81 19.852C20.07 19.852 20.515 19.982 21.553 20.982C22.74 22.17 22.936 22.702 23.603 22.702H25.353C25.853 22.702 26.103 22.452 25.96 21.959C25.802 21.467 25.235 20.753 24.483 19.907C24.075 19.425 23.463 18.906 23.278 18.647C23.018 18.313 23.092 18.164 23.278 17.867C23.278 17.867 25.41 14.863 25.633 13.843Z" fill="white"/>
</svg>
