<svg width="36" height="36" viewBox="0 0 36 36" fill="none" xmlns="http://www.w3.org/2000/svg">
<rect width="36" height="36" rx="18" />
<path fill-rule="evenodd" clip-rule="evenodd" d="M18.036 12.4004C18.491 12.4004 23.071 12.4174 24.26 12.7434C24.5976 12.835 24.9054 13.0133 25.1527 13.2607C25.4001 13.5081 25.5784 13.8158 25.67 14.1534C26 15.3544 26 17.8064 26 18.0024V18.0424C25.999 18.3244 25.98 20.6874 25.67 21.8624C25.5786 22.2002 25.4003 22.5082 25.1529 22.7557C24.9056 23.0032 24.5977 23.1817 24.26 23.2734C23.083 23.5834 18.587 23.6014 18.052 23.6034H17.948C17.414 23.6014 12.928 23.5824 11.74 23.2604C11.4024 23.1688 11.0946 22.9905 10.8473 22.7431C10.5999 22.4958 10.4216 22.188 10.33 21.8504C10.02 20.6864 10 18.3124 10 18.0294V17.9734C10.001 17.6914 10.02 15.3294 10.33 14.1534C10.4232 13.8151 10.6018 13.5064 10.8487 13.257C11.0957 13.0076 11.4026 12.8259 11.74 12.7294C12.93 12.4164 17.508 12.4014 17.963 12.3994H18.036V12.4004ZM16.406 15.6024V20.4004L20.57 18.0004L16.406 15.6024Z" fill="white"/>
</svg>
